<svg id="Heart-Book--Streamline-Atlas" xmlns="http://www.w3.org/2000/svg" viewBox="-0.5 -0.5 16 16" height="16" width="16">
  <desc>
    Heart Book Streamline Icon: https://streamlinehq.com
  </desc>
  <defs></defs>
  <path d="M8.8375 3.75A1.59375 1.59375 0 0 0 7.5 4.4875 1.575 1.575 0 0 0 6.1875 3.75a1.59375 1.59375 0 0 0 -1.5875 1.61875c0 2.38125 2.9125 3.18125 2.9125 3.18125s2.91875 -0.8 2.91875 -3.18125A1.59375 1.59375 0 0 0 8.8375 3.75Z" fill="none" stroke="#000000" stroke-miterlimit="10" stroke-width="1"></path>
  <path d="M12.88125 0.9375v10.7375H3.3375a1.20625 1.20625 0 0 0 -1.1937499999999999 1.1937499999999999V2.13125A1.2 1.2 0 0 1 3.3375 0.9375Z" fill="none" stroke="#000000" stroke-miterlimit="10" stroke-width="1"></path>
  <path d="M13.48125 14.0625H3.3375a1.2 1.2 0 0 1 -1.1937499999999999 -1.1937499999999999 1.20625 1.20625 0 0 1 1.1937499999999999 -1.1937499999999999h8.95v2.3874999999999997" fill="none" stroke="#000000" stroke-miterlimit="10" stroke-width="1"></path>
</svg>