<svg id="Laundry-Service--Streamline-Atlas" xmlns="http://www.w3.org/2000/svg" viewBox="-0.5 -0.5 16 16" height="16" width="16">
  <desc>
    Laundry Service Streamline Icon: https://streamlinehq.com
  </desc>
  <defs></defs>
  <path d="M11.675 9.2875h1.3a1.0875 1.0875 0 0 0 1.0875 -1.08125 1.1 1.1 0 0 0 -0.625 -1L7.5 4.518750000000001l-5.925000000000001 2.6875a1.1 1.1 0 0 0 -0.625 1 1.0875 1.0875 0 0 0 1.0875 1.08125h1.2875" fill="none" stroke="#000000" stroke-miterlimit="10" stroke-width="1"></path>
  <path d="M7.5 4.518750000000001V4.375a1.5875 1.5875 0 0 1 0.7062499999999999 -1.25 1.1937499999999999 1.1937499999999999 0 1 0 -1.875 -0.9625" fill="none" stroke="#000000" stroke-miterlimit="10" stroke-width="1"></path>
  <path d="M4.518750000000001 8.125h5.96875a1.1937499999999999 1.1937499999999999 0 0 1 1.1937499999999999 1.1937499999999999v4.74375H3.325v-4.7749999999999995A1.1937499999999999 1.1937499999999999 0 0 1 4.518750000000001 8.125Z" fill="none" stroke="#000000" stroke-miterlimit="10" stroke-width="1"></path>
</svg>