<svg id="Sun-Oversea--Streamline-Atlas" xmlns="http://www.w3.org/2000/svg" viewBox="-0.5 -0.5 16 16" height="16" width="16">
  <desc>
    Sun Oversea Streamline Icon: https://streamlinehq.com
  </desc>
  <defs></defs>
  <path d="m7.5 0.3 0 1.2" fill="none" stroke="#000000" stroke-miterlimit="10" stroke-width="1"></path>
  <path d="m14.087499999999999 6.887499999999999 -1.1937499999999999 0" fill="none" stroke="#000000" stroke-miterlimit="10" stroke-width="1"></path>
  <path d="m2.1125 6.887499999999999 -1.2 0" fill="none" stroke="#000000" stroke-miterlimit="10" stroke-width="1"></path>
  <path d="m7.5 0.3 0 1.2" fill="none" stroke="#000000" stroke-miterlimit="10" stroke-width="1"></path>
  <path d="m14.087499999999999 6.887499999999999 -1.1937499999999999 0" fill="none" stroke="#000000" stroke-miterlimit="10" stroke-width="1"></path>
  <path d="m2.1125 6.887499999999999 -1.2 0" fill="none" stroke="#000000" stroke-miterlimit="10" stroke-width="1"></path>
  <path d="M3.6875 3.075 2.84375 2.2312499999999997" fill="none" stroke="#000000" stroke-miterlimit="10" stroke-width="1"></path>
  <path d="M3.6875 3.075 2.84375 2.2312499999999997" fill="none" stroke="#000000" stroke-miterlimit="10" stroke-width="1"></path>
  <path d="M12.15625 2.2312499999999997 11.3125 3.075" fill="none" stroke="#000000" stroke-miterlimit="10" stroke-width="1"></path>
  <path d="M12.15625 2.2312499999999997 11.3125 3.075" fill="none" stroke="#000000" stroke-miterlimit="10" stroke-width="1"></path>
  <path d="m0.3125 9.28125 14.375 0" fill="none" stroke="#000000" stroke-miterlimit="10" stroke-width="1"></path>
  <path d="m1.5125 11.68125 11.975 0" fill="none" stroke="#000000" stroke-miterlimit="10" stroke-width="1"></path>
  <path d="m3.30625 14.075 8.3875 0" fill="none" stroke="#000000" stroke-miterlimit="10" stroke-width="1"></path>
  <path d="M10.16875 9.28125A3.5375 3.5375 0 0 0 11.09375 6.875a3.59375 3.59375 0 0 0 -7.1875 0 3.5375 3.5375 0 0 0 0.925 2.39375" fill="none" stroke="#000000" stroke-miterlimit="10" stroke-width="1"></path>
</svg>