<svg id="Toast-Bread--Streamline-Atlas" xmlns="http://www.w3.org/2000/svg" viewBox="-0.5 -0.5 16 16" height="16" width="16">
  <desc>
    Toast Bread Streamline Icon: https://streamlinehq.com
  </desc>
  <defs></defs>
  <path d="M9.48125 0.9375H5.51875a3.9875 3.9875 0 0 0 -3.9875 3.98125v0.28125a1.70625 1.70625 0 0 0 1.1937499999999999 1.61875v6a1.25 1.25 0 0 0 1.25 1.25h7.0625a1.25 1.25 0 0 0 1.25 -1.25v-6a1.70625 1.70625 0 0 0 1.1937499999999999 -1.61875v-0.28125a3.9875 3.9875 0 0 0 -4 -3.98125Z" fill="none" stroke="#000000" stroke-miterlimit="10" stroke-width="1"></path>
  <path d="m5.1125 10.48125 1.1937499999999999 0" fill="none" stroke="#000000" stroke-miterlimit="10" stroke-width="1"></path>
  <path d="m6.30625 8.09375 1.1937499999999999 0" fill="none" stroke="#000000" stroke-miterlimit="10" stroke-width="1"></path>
  <path d="m8.69375 3.325 1.1937499999999999 0" fill="none" stroke="#000000" stroke-miterlimit="10" stroke-width="1"></path>
  <path d="m9.2875 5.7125 1.1937499999999999 0" fill="none" stroke="#000000" stroke-miterlimit="10" stroke-width="1"></path>
  <path d="m9.2875 9.8875 1.1937499999999999 0" fill="none" stroke="#000000" stroke-miterlimit="10" stroke-width="1"></path>
</svg>