<svg id="Strength--Streamline-Atlas" xmlns="http://www.w3.org/2000/svg" viewBox="-0.5 -0.5 16 16" height="16" width="16">
  <desc>
    Strength Streamline Icon: https://streamlinehq.com
  </desc>
  <defs></defs>
  <path d="M3.4250000000000003 6.3a10.5625 10.5625 0 0 0 2.08125 3.5125" fill="none" stroke="#000000" stroke-miterlimit="10" stroke-width="1"></path>
  <path d="M1.05625 2.8249999999999997a1.5 1.5 0 0 0 -0.11249999999999999 0.55625v2.90625c0 2.3874999999999997 1.7874999999999999 7.75625 3.5812500000000003 7.75625 3.4375 0 5.9375 -3.0875000000000004 7.08125 -4.81875A2.9812499999999997 2.9812499999999997 0 1 0 8.125 6.30625 8.825 8.825 0 0 0 6.30625 7.5a3.0625 3.0625 0 0 0 -0.8 2.3125 5.04375 5.04375 0 0 0 0.20625000000000002 1.25" fill="none" stroke="#000000" stroke-miterlimit="10" stroke-width="1"></path>
  <path d="M0.9375 3.625a2.6875 2.6875 0 1 0 5.375 0 2.6875 2.6875 0 1 0 -5.375 0" fill="none" stroke="#000000" stroke-miterlimit="10" stroke-width="1"></path>
  <path d="M3.325 3.625a0.3 0.3 0 1 0 0.6 0 0.3 0.3 0 1 0 -0.6 0" fill="none" stroke="#000000" stroke-miterlimit="10" stroke-width="1"></path>
</svg>