<svg id="Headphones--Streamline-Atlas" xmlns="http://www.w3.org/2000/svg" viewBox="-0.5 -0.5 16 16" height="16" width="16">
  <desc>
    Headphones Streamline Icon: https://streamlinehq.com
  </desc>
  <defs></defs>
  <path d="M2.13125 6.875h1.1937499999999999v4.7749999999999995H2.13125a1.1937499999999999 1.1937499999999999 0 0 1 -1.1937499999999999 -1.1687500000000002V8.125a1.1937499999999999 1.1937499999999999 0 0 1 1.1937499999999999 -1.25Z" fill="none" stroke="#000000" stroke-miterlimit="10" stroke-width="1"></path>
  <path d="M11.675 6.875h1.1937499999999999a1.1937499999999999 1.1937499999999999 0 0 1 1.1937499999999999 1.25v2.3874999999999997a1.1937499999999999 1.1937499999999999 0 0 1 -1.1937499999999999 1.1937499999999999h-1.1937499999999999V6.875Z" fill="none" stroke="#000000" stroke-miterlimit="10" stroke-width="1"></path>
  <path d="M12.275 11.675a2.3874999999999997 2.3874999999999997 0 0 1 -2.3874999999999997 2.3874999999999997H7.5" fill="none" stroke="#000000" stroke-miterlimit="10" stroke-width="1"></path>
  <path d="M2.725 6.90625V5.7125A4.7749999999999995 4.7749999999999995 0 0 1 7.5 0.9375a4.7749999999999995 4.7749999999999995 0 0 1 4.7749999999999995 4.7749999999999995v1.1937499999999999" fill="none" stroke="#000000" stroke-miterlimit="10" stroke-width="1"></path>
</svg>